<svg viewBox="0 0 64 64" id="Layer_1" version="1.1" xml:space="preserve" xmlns="http://www.w3.org/2000/svg" xmlns:xlink="http://www.w3.org/1999/xlink" fill="#E57373" stroke="#E57373"><g id="SVGRepo_bgCarrier" stroke-width="0"></g><g id="SVGRepo_tracerCarrier" stroke-linecap="round" stroke-linejoin="round"></g><g id="SVGRepo_iconCarrier"> <style type="text/css"> .st0{fill:none;stroke:#E57373;stroke-width:2;stroke-miterlimit:10;} .st1{fill:none;stroke:#E57373;stroke-width:2;stroke-linecap:round;stroke-linejoin:round;stroke-miterlimit:10;} .st2{fill:none;stroke:#E57373;stroke-width:2;stroke-linecap:round;stroke-linejoin:round;stroke-miterlimit:10;stroke-dasharray:6,5;} </style> <g> <polygon class="st1" points="43,26 43,52 15,52 15,18 35,18 35,26 "></polygon> <polygon class="st1" points="43,26 35,26 35,18 "></polygon> <polygon class="st1" points="49,20 49,46 43,46 43,26 35,26 35,18 21,18 21,12 41,12 "></polygon> <polygon class="st1" points="49,20 41,20 41,12 "></polygon> <polygon class="st1" points="43,26 35,26 35,18 "></polygon> <circle class="st1" cx="23" cy="26" r="4"></circle> <line class="st1" x1="38" x2="20" y1="45" y2="45"></line> <line class="st1" x1="38" x2="20" y1="40" y2="40"></line> <line class="st1" x1="29" x2="20" y1="35" y2="35"></line> </g> </g></svg>